PathFileType	4	(X/Y/Z)	19_1_8_p0_0-269_filt_butterworth.trc
DataRate	CameraRate	NumFrames	NumMarkers	Units	OrigDataRate	OrigDataStartFrame	OrigNumFrames
60.0	60.0	4	27	m	60.0	0	269
Frame#	Time	RHip			RKnee			RAnkle			RBigToe			RSmallToe			RHeel			LHip			LKnee			LAnkle			LBigToe			LSmallToe			LHeel			Neck			Head			Nose			RShoulder			RElbow			RWrist			RThumb			RIndex			RPinky			LShoulder			LElbow			LWrist			LThumb			LIndex			LPinky			
		X1	Y1	Z1	X2	Y2	Z2	X3	Y3	Z3	X4	Y4	Z4	X5	Y5	Z5	X6	Y6	Z6	X7	Y7	Z7	X8	Y8	Z8	X9	Y9	Z9	X10	Y10	Z10	X11	Y11	Z11	X12	Y12	Z12	X13	Y13	Z13	X14	Y14	Z14	X15	Y15	Z15	X16	Y16	Z16	X17	Y17	Z17	X18	Y18	Z18	X19	Y19	Z19	X20	Y20	Z20	X21	Y21	Z21	X22	Y22	Z22	X23	Y23	Z23	X24	Y24	Z24	X25	Y25	Z25	X26	Y26	Z26	X27	Y27	Z27	
0	0.0	0.29721734101985225	0.5615554361371391	0.8906697002699002	0.27788847427806385	0.5418385478239074	1.2991930328681756	0.2637495481159019	0.60545361985953	1.746924337265197	0.26718047620129115	0.39833880224499746	1.7449375562084644	0.33378471057002257	0.4256519876756918	1.750648002790231	0.2399365876894545	0.653252115688813	1.800711649604997	0.06724888862873055	0.5410310161648108	0.8826980733850482	0.07336554881281879	0.5316504408877345	1.2956782442162282	0.07411130010408463	0.5494583735283661	1.740376187927556	0.11278624653006669	0.3374912123519292	1.7231379979574624	0.05546452291182494	0.393689038494472	1.7469116061220429	0.09216919039031524	0.5910022160948218	1.7971867485578672	0.1877097921010948	0.5203378510042636	0.29292531366556346	0.20444520303528593	0.507361553586288	0.02740493686310336	0.1857038432836335	0.4114961701935507	0.17210250898527446	0.33676141478027727	0.5069647257724912	0.3814386666336072	0.3409435973556566	0.33324117545838045	0.5617525338582768	0.2430298653861472	0.12065853204759355	0.6509497423292365	0.19651858740544503	0.03170621349100605	0.6754578555463163	0.19439462429881424	0.02087661316446367	0.6836612466553224	0.1922521091524665	0.08854863622413103	0.7360112797223515	0.030395813156384052	0.47860925876616034	0.3559363504947946	0.05685918361610176	0.29606258670006286	0.5399982013842899	0.16127661065999482	0.10208559694644354	0.6348767127478283	0.2160508962210131	0.025582045162595643	0.6517254522476539	0.22346404975974482	0.01776908051451042	0.6705556063591297	0.20399832585850566	0.0260624268048436	0.6867712127159308
1	0.0166666666666666	0.2978254067676224	0.560013606606066	0.8882427697144915	0.27699869599313454	0.5408045733656777	1.2991156581215697	0.2638809922414627	0.6057855921240258	1.7471572336124128	0.26796585139890666	0.39893666923845017	1.7484942694123347	0.33484550788473805	0.4192615718966691	1.7493768594347805	0.2401587207201391	0.6535176122680904	1.8010833198137104	0.06703966622788508	0.541019994518176	0.8805133230155655	0.0735670425847449	0.5320855855603255	1.2975400707301952	0.07390815923514533	0.5491659682200934	1.738827108079949	0.1098518985151535	0.33613355717827853	1.7215015935584144	0.05116390304821432	0.3963118465785345	1.7499374845516522	0.09193995771753498	0.5905103110064072	1.795388143210634	0.18767622964829359	0.520029751363419	0.292891404119746	0.20447416273324726	0.507438103839212	0.02734032387329898	0.18696813671598164	0.41218328902844426	0.170246805362351	0.3366273754564329	0.5067187038146949	0.3814014214419152	0.34234255299139527	0.33046053685636506	0.5596529790824849	0.24456748071417855	0.11814988501667065	0.649907010613662	0.1845897431760445	0.05533794032256268	0.6838186231501319	0.18525269108324866	0.04220640331858333	0.6894115691348219	0.19108966273312447	0.09120198265586475	0.73698825297124	0.030401211947881857	0.4784442889812585	0.35591549468056677	0.05548056630606779	0.2893305000848135	0.5393500858082144	0.161134763640546	0.10255422827526212	0.6329358365772705	0.21998469987947394	0.02845263488496379	0.6469142464757555	0.22636591847186266	0.0215203444263046	0.6671715579654155	0.1986277353539921	0.031131239831287717	0.6889059266405991
2	0.0333333333333333	0.2992154110558462	0.5568126106087432	0.885178593685984	0.2764840638033051	0.5402988804870652	1.2990674685896493	0.263977312557802	0.6060253643910307	1.7473197496477484	0.269539786460081	0.399536236381117	1.7508988640030392	0.3359911900319753	0.41474323395655255	1.747616130041283	0.24044064274096488	0.6553860428161343	1.8023858352050008	0.06747305803027237	0.5395927167284391	0.8777252705111781	0.07371521684255435	0.5323776681644932	1.298899977761083	0.07381317027270888	0.5490738695271725	1.73819089602513	0.10795438809279313	0.3350813354875765	1.7194978952419884	0.0487793878379854	0.3975973682329369	1.7515937897355225	0.09182534775632821	0.5903398768705209	1.7946105770985674	0.1878879230642869	0.5210163198658123	0.2930356231836143	0.20450840197963976	0.507498104438571	0.02728824936698072	0.1882089660370515	0.412921767911129	0.16914619998907288	0.3368514656617938	0.5076885270612912	0.3815564769490242	0.3438080919459963	0.3292884331370697	0.5582531218448086	0.24599784574157102	0.11755053434544782	0.6480710439227041	0.1755553827639386	0.07302070401553448	0.6894707039417611	0.17790478549626107	0.057740816809702236	0.6937656853252131	0.19090358098810237	0.09231164051341297	0.736309116381994	0.030405073004125857	0.47824719468611854	0.3558716682606231	0.054736904469687285	0.28519482080936803	0.538702764860308	0.16107744224844592	0.10287241051745974	0.631788507129805	0.2224471163021863	0.03014210384183969	0.6440949714007549	0.22809459483002195	0.022988818147561083	0.6644594161018594	0.19553290859882883	0.03382030980763218	0.6896860690657027
3	0.05	0.30144019916735987	0.5524964033168727	0.8823947773398948	0.27636582611743415	0.5402476237577355	1.2990985008206155	0.26401967073062793	0.6061710521367786	1.747410472240455	0.2719810545993084	0.3999387553458374	1.7517299021326156	0.3363679712543754	0.413857589917922	1.7462427068787962	0.24125105448274928	0.6598760049823058	1.8052211328341898	0.06887579598602649	0.5361228366506993	0.8749764165841858	0.07382772772391412	0.5325657459578838	1.2999121865192325	0.07386781963244186	0.5492560392296353	1.7387638231771951	0.10722048898230108	0.33438015883945643	1.7173247785401313	0.04871553818630435	0.39687599415928987	1.7503340848970155	0.09186463760089536	0.5905837672594452	1.7951318135231693	0.18847554874643838	0.524008619211812	0.293448639866284	0.20454716456844557	0.507523191515233	0.027269619666713932	0.18908968081074154	0.4134950702499876	0.16885288049006622	0.3376118933548945	0.5105611061062957	0.38201857416020435	0.3451648202424859	0.3302458364319967	0.5580164671585264	0.24695081334668154	0.11919765797453104	0.6459187683433039	0.17020883645487833	0.08309722353964036	0.6919890265160286	0.1729781844661064	0.06575445212684987	0.6962619964485002	0.19187037714711447	0.09130637036845281	0.7336802340397761	0.030452467094628503	0.4783479514141314	0.3558579694885949	0.05494880535487961	0.2843241383406695	0.5386086103232557	0.16109278875212144	0.10299956099632016	0.6313652526928981	0.22319609391592515	0.030521154786496398	0.6433996708562146	0.22854154191424392	0.021102681886363946	0.6624877321733741	0.19548810114605583	0.03352582984892522	0.6886708214182661
